<svg width="24" height="25" viewBox="0 0 24 25" fill="none" xmlns="http://www.w3.org/2000/svg">
<g id=".DISCONTINUED / brand / instagram">
<path id="Vector" d="M12.002 21.5409C9.54195 21.5409 9.25195 21.5279 8.29195 21.4859C7.54332 21.4613 6.80439 21.3091 6.10695 21.0359C4.90026 20.5663 3.94609 19.6117 3.47695 18.4049C3.21426 17.7049 3.07257 16.9654 3.05795 16.2179C3.00195 15.2599 3.00195 14.9459 3.00195 12.5049C3.00195 10.0379 3.01495 9.74988 3.05795 8.79488C3.07289 8.0484 3.21457 7.30989 3.47695 6.61088C3.94558 5.40241 4.9013 4.44706 6.10995 3.97888C6.8086 3.71509 7.5473 3.57303 8.29395 3.55888C9.24895 3.50488 9.56295 3.50488 12.002 3.50488C14.482 3.50488 14.767 3.51788 15.712 3.55888C16.4605 3.57315 17.2012 3.71519 17.902 3.97888C19.1103 4.44759 20.0658 5.40276 20.535 6.61088C20.8021 7.32008 20.9445 8.07013 20.956 8.82788C21.012 9.78588 21.012 10.0989 21.012 12.5389C21.012 14.9789 20.998 15.2989 20.956 16.2459C20.9411 16.9941 20.799 17.7343 20.536 18.4349C20.0656 19.6426 19.11 20.5975 17.902 21.0669C17.2022 21.3291 16.4631 21.4707 15.716 21.4859C14.761 21.5409 14.448 21.5409 12.002 21.5409ZM11.968 5.08788C9.52195 5.08788 9.26795 5.09988 8.31295 5.14288C7.74294 5.15043 7.17843 5.25562 6.64395 5.45388C5.85471 5.75589 5.23018 6.37787 4.92495 7.16588C4.72517 7.70618 4.61996 8.27686 4.61395 8.85288C4.56095 9.82188 4.56095 10.0759 4.56095 12.5049C4.56095 14.9049 4.56995 15.1959 4.61395 16.1589C4.62291 16.7291 4.72805 17.2937 4.92495 17.8289C5.23063 18.6164 5.85505 19.2379 6.64395 19.5399C7.17807 19.7395 7.7428 19.8447 8.31295 19.8509C9.28095 19.9069 9.53595 19.9069 11.968 19.9069C14.421 19.9069 14.675 19.8949 15.622 19.8509C16.1924 19.8439 16.7573 19.7387 17.292 19.5399C18.0764 19.2353 18.6969 18.6152 19.002 17.8309C19.2014 17.2901 19.3065 16.7192 19.313 16.1429H19.324C19.367 15.1869 19.367 14.9319 19.367 12.4889C19.367 10.0459 19.356 9.78888 19.313 8.83388C19.304 8.26433 19.1988 7.70039 19.002 7.16588C18.6976 6.38046 18.077 5.75918 17.292 5.45388C16.7574 5.25462 16.1924 5.1494 15.622 5.14288C14.655 5.08788 14.402 5.08788 11.968 5.08788ZM12.002 17.1239C10.1319 17.1251 8.44537 15.9996 7.72882 14.2723C7.01226 12.5451 7.40686 10.5562 8.72858 9.23334C10.0503 7.91047 12.0388 7.51415 13.7667 8.22921C15.4946 8.94428 16.6215 10.6299 16.622 12.4999C16.6192 15.0509 14.553 17.1189 12.002 17.1239ZM12.002 9.49788C10.3451 9.49788 9.00195 10.841 9.00195 12.4979C9.00195 14.1547 10.3451 15.4979 12.002 15.4979C13.6588 15.4979 15.002 14.1547 15.002 12.4979C14.9981 10.8426 13.6572 9.50173 12.002 9.49788ZM16.802 8.78489C16.2074 8.78268 15.7269 8.29947 15.728 7.70489C15.7291 7.11031 16.2114 6.62889 16.806 6.62889C17.4005 6.62889 17.8828 7.1103 17.884 7.70488C17.8842 7.99174 17.7702 8.26691 17.5672 8.46956C17.3642 8.67222 17.0888 8.78568 16.802 8.78489Z" fill="white"/>
</g>
</svg>
