<svg width="19" height="19" viewBox="0 0 19 19" fill="none" xmlns="http://www.w3.org/2000/svg">
<path id="Vector" d="M9.89705 18.968C9.36603 18.9696 8.85647 18.7586 8.48205 18.382L0.648054 10.547C0.234643 10.1348 0.0226645 9.56205 0.0680544 8.98L0.568054 2.414C0.639353 1.42638 1.42625 0.641616 2.41405 0.572996L8.98005 0.0729965C9.03105 0.0619965 9.08305 0.0619965 9.13405 0.0619965C9.6639 0.0633567 10.1718 0.273975 10.5471 0.647996L18.3821 8.482C18.7573 8.85709 18.9681 9.36592 18.9681 9.8965C18.9681 10.4271 18.7573 10.9359 18.3821 11.311L11.3111 18.382C10.9369 18.7583 10.4277 18.9693 9.89705 18.968ZM9.13305 2.062L2.56205 2.562L2.06205 9.133L9.89705 16.968L16.9671 9.898L9.13305 2.062ZM5.65405 7.654C4.69989 7.6542 3.87847 6.98036 3.69213 6.04457C3.5058 5.10878 4.00646 4.17168 4.88792 3.80638C5.76939 3.44107 6.78615 3.74931 7.31638 4.54258C7.84662 5.33585 7.74265 6.3932 7.06805 7.068C6.69388 7.44431 6.18473 7.65532 5.65405 7.654Z" fill="#00235C"/>
</svg>
